<svg height="186" viewBox="0 0 440 186" width="440" xmlns="http://www.w3.org/2000/svg" xmlns:xlink="http://www.w3.org/1999/xlink"><linearGradient id="a" x1="50%" x2="50%" y1="0%" y2="157.711142%"><stop offset="0" stop-color="#eeeaf2"/><stop offset="1"/></linearGradient><linearGradient id="b" x1="50%" x2="50%" y1="0%" y2="149.689109%"><stop offset=".0004097465" stop-color="#f0eef2"/><stop offset="1"/></linearGradient><linearGradient id="c" x1="50%" x2="50%" y1="0%" y2="100%"><stop offset="0" stop-color="#dfd9e6"/><stop offset="1"/></linearGradient><linearGradient id="d" x1="50%" x2="50%" y1="0%" y2="100%"><stop offset="0" stop-color="#e2dee8"/><stop offset="1"/></linearGradient><linearGradient id="e" x1="50%" x2="50%" y1="0%" y2="204.670981%"><stop offset="0" stop-color="#eae8ef"/><stop offset="1"/></linearGradient><linearGradient id="f" x1="50%" x2="50%" y1="0%" y2="132.866689%"><stop offset="0" stop-color="#cec7d9"/><stop offset=".999344406"/></linearGradient><g fill="none" fill-rule="evenodd"><g fill-rule="nonzero" transform="translate(237)"><path d="m8.91511036 64.5696c.12878971 2.6928 3.30560274 4.6656 7.81324274 5.904.0429299.0144.0858599.0288.1287898.0432 1.8459859.504 3.9066213.864 6.0817366 1.1088.0286199 0 .0429299.0144.0715498.0144h.0286199c2.0892554.2304 4.2643706.36 6.4394858.36h.02862.0286199c2.1751152 0 4.3502304-.1296 6.4394858-.36h.02862c.0143099 0 .0429299-.0144.0572398-.0144 2.1751153-.2448 4.2500607-.6192 6.0960466-1.1232.0286199-.0144.0715499-.0144.1001698-.0288 4.52195-1.2384 7.698763-3.2112 7.8275527-5.904l4.106961-19.7856c.1574096-.7776-.3291293-1.5408-1.1018676-1.6992-.7870482-.1584-1.5311666.3312-1.6885763 1.1088l-4.1355808 19.9008c-.01431.1008-.02862.2016-.02862.288 0 .72-1.2878971 1.7568-3.7349018 2.664l5.6953675-37.584c2.2323551-.6768 4.2071307-1.4976 5.7812273-2.4336l-2.5471744 12.2256c-.1574097.7776.3291292 1.5408 1.1018675 1.6992.1001698.0144.2003396.0288.3005094.0288.6582585 0 1.2592772-.4608 1.4023769-1.1376l3.4773223-16.7472c.1860296-.504.2861994-1.0224.2861994-1.5696 0-2.5488-1.6313364-4.752-3.9352413-5.5584 0-.0288 0-.0576 0-.0864 0-3.2688-2.6902741-5.8896-5.910017-5.8752-.6439486-2.5488-2.9335435-4.4352-5.6667475-4.4352-.2432695 0-.472229.0144-.7011885.0432-.8585981-2.2032-2.9621634-3.7152-5.4091681-3.7152-1.0589376 0-2.0749454.288-2.9478535.8064-1.0589376-1.6416-2.8763036-2.7072-4.9369391-2.7072-2.0606354 0-3.8780014 1.0656-4.9226291 2.7216-.8872181-.5328-1.8889159-.8064-2.9478535-.8064-2.4613146 0-4.56488 1.512-5.4091681 3.7152-.2289595-.0288-.472229-.0432-.7011885-.0432-2.733204 0-5.0227989 1.8864-5.66674749 4.4352-.02861994 0-.04292991 0-.07154985 0-3.2197429 0-5.83846713 2.6352-5.83846713 5.8752v.0864c-2.28959496.8064-3.93524133 3.0096-3.93524133 5.5584 0 .5328.10016978 1.0512.28619937 1.5552zm2.60096434-.0180347c0-.1007557-.0139179-.2015113-.0278358-.302267l-7.50175241-37.0492983c1.53096987.9355883 3.45164116 1.7560273 5.6228348 2.4325297l5.53932731 37.5674703c-2.3799622-.8924073-3.6325739-1.9287513-3.6325739-2.6484347zm25.9568983-33.3515653-2.8135888 37.3831603c-1.1199722.1011919-2.2945772.1734718-3.5647896.2168397v-37.2096886c2.1443371-.0433679 4.2886741-.1734717 6.3783784-.3903114zm-9.5675676 37.6c-1.2565542-.028912-2.4448174-.1011918-3.5647896-.2168397l-2.8135888-37.3831603c2.0897043.2168397 4.2340413.3469435 6.3783784.3758554zm-9.3795008-37.373494 3.0011224 37.373494c-1.0635045-.1590361-2.0541663-.346988-2.9574167-.5638554l-5.8128535-37.8361446c1.8210694.4048193 3.7586872.7518072 5.7691478 1.026506zm21.9044851 36.8096386c-.9032504.2168674-1.8793436.4048193-2.9574167.5638554l3.0011224-37.373494c2.0104606-.2746988 3.9480784-.6072289 5.7691478-1.026506zm-34.4281677-49.2974049c.43056624-.0289315.83242807-.2603835 1.07641561-.6075616s.33010079-.8100822.20093092-1.2295891c-.08611325-.3182465-.12916988-.5930958-.12916988-.8245479 0-1.6635616 1.33475536-3.0088767 2.98525935-3.0088767.2726919 0 .5597361.057863.9041891.1591233.4449184.1446575.9472457.057863 1.3204031-.2314521s.5884406-.7522192.5597361-1.229589c0-.0723288-.0143522-.1591233-.0287044-.1591233 0-1.6635617 1.3347554-3.00887672 2.9852593-3.00887672.4018619 0 .8037237.08679452 1.1768811.2459178.416214.1880548.9041891.15912329 1.306051-.08679452.4018618-.24591781.6602015-.6509589.7032582-1.11386301.143522-1.56230137 1.4065164-2.7340274 2.9565548-2.7340274.9472458 0 1.8227305.44843836 2.3968188 1.22958904.344453.46290411.9328935.67989041 1.4926297.54969863.5597361-.13019178.9903023-.59309589 1.0764156-1.17172602.2296353-1.4610411 1.4639252-2.5170411 2.9278505-2.5170411 1.4639252 0 2.6982151 1.056 2.9278504 2.53150685.1004655.57863014.5166795 1.04153425 1.0764156 1.17172603.5597362.13019178 1.1481767-.07232877 1.4926297-.54969863.5740883-.78115069 1.449573-1.22958904 2.3968188-1.22958904 1.5356862 0 2.8130328 1.17172602 2.9565549 2.73402739.0430566.46290411.3013963.88241096.7032582 1.11386302.4018618.23145205.8754847.26038356 1.3060509.08679452.3731574-.15912329.7750192-.24591781 1.1768811-.24591781 1.6505039 0 2.9852593 1.34531507 2.9852593 2.93654797 0 .0433972-.0287044.1880548-.0287044.231452-.0287045.4773699.1865787.940274.5597361 1.2295891.3731574.289315.8611325.3761096 1.3204031.231452.344453-.115726.6314972-.1591233.9041892-.1591233 1.6505039 0 2.9852593 1.3453151 2.9852593 3.0088767 0 .2459179-.0430567.5063014-.1291699.824548-.1148177.4195068-.0430566.8679452.2009309 1.229589.2439875.3616439.6458494.5786302 1.0764156.6075617 1.5643907.1012603 2.7843284 1.4321096 2.7843284 3.0088767 0 3.1969315-10.1613634 7.6379178-26.7094595 7.6379178-16.548096 0-26.70945941-4.4554521-26.70945941-7.6379178.01435221-1.5912329 1.2342899-2.9220822 2.81303281-3.0233425z" fill="url(#a)"/><g fill="#000"><path d="m6.48775306 11.9562502c.09057083.0291665.17359409.0437498.26416491.0437498.30190276 0 .58871038-.1822907.70947148-.4666642.05283298-.1239577.53587739-1.2322851 1.66046516-1.0499944.40756872.0656246.80004231-.2041656.86797043-.60520516.06792816-.40103954-.21133193-.77291257-.62644822-.83853722-1.90953494-.29895675-3.00393243 1.16666048-3.31338276 1.98332278-.15095138.3791647.05283299.7947875.437759.9333284z"/><path d="m14.1455408 13.5165403c.2629764.3270463.7889292.4123627 1.1706691.1990717.1357297-.0710971 1.3148819-.6825314 2.2310577.0782067.161179.1350843.3817399.2061813.6023007.2061813.2205609 0 .4326386-.071097.6023008-.2061813.3308412-.2772784.3308412-.7251896 0-1.0024679-1.5354428-1.2868559-3.5289734-.7251895-4.3688012-.2559492-.3987061.213291-.5005035.6540925-.2375271.9811387z"/><path d="m11.4912534 8.95635631c.0829405.02909579.1734211.04364369.2639017.04364369.3091419 0 .5956637-.18184871.7087644-.47280665.0150801-.05091763.482563-1.22929728 1.6588103-1.04744857.4147026.06546554.799245-.20367055.8671054-.60373771s-.2111213-.77103853-.6258239-.83650407c-1.9076319-.29823188-3.0009387 1.16383175-3.3100806 1.97851397-.158341.38551926.0452403.80013432.4373227.93833934z"/><path d="m23.8711212 10.4760497c1.1406348-.174999 1.6089749.9187452 1.661852 1.0499945.1133081.2916651.4003552.4739558.710064.4739558.0906465 0 .1737391-.0145833.2643855-.0437498.3928014-.1385409.5892021-.5614553.4456785-.9333284-.3097088-.8166623-1.4050203-2.28227953-3.3161501-1.98332278-.4079091.06562465-.6949562.43749768-.6269714.83853722.060431.39374796.4532324.66353816.8611415.59791346z"/><path d="m18.8711212 8.47604974c1.1330809-.1822907 1.6089749.91874513 1.661852 1.04999444.1133081.29166512.4003552.47395582.710064.47395582.0906465 0 .1737391-.01458326.2643855-.04374977.3928014-.13854093.5892021-.56145536.4456785-.93332839-.3097088-.81666234-1.4050203-2.28227957-3.3161501-1.98332282-.4079091.06562465-.6949562.43749768-.6269714.83853722.060431.39374791.4532324.66353815.8611415.5979135z"/></g></g><g stroke-linejoin="round" stroke-width="2" transform="translate(362 27)"><path d="m77 64.2228571v3.8571429c0 2.9571429-17.2351667 7.92-38.5 7.92s-38.5-4.9628571-38.5-7.8557143v-3.8571428c0-8.55 6.49366667-16.4442858 16.6833333-20.9185715.8063078 4.3129175 1.2357118 8.6880581 1.2833334 13.0757143 0 1.4201608 1.1491358 2.5714286 2.5666666 2.5714286 1.4175309 0 2.5666667-1.1512678 2.5666667-2.5714286.014074-4.8250192-.4155187-9.6410802-1.2833333-14.3871428 4.1795723-1.2005602 8.4885175-1.8912706 12.8333333-2.0571429 1.7683813 6.1721955 2.6329541 12.5689118 2.5666667 18.99 0 1.4201608 1.1491358 2.5714286 2.5666666 2.5714286 1.4175309 0 2.5666667-1.1512678 2.5666667-2.5714286.0186424-6.41803-.8450265-12.8080582-2.5666667-18.99 4.8766667.1157143 9.6378334.1928571 13.8856667 1.3757143 1.0241117 4.9350769 1.5316354 9.963712 1.5143333 15.0042857 0 1.4201608 1.1491358 2.5714286 2.5666667 2.5714286s2.5666667-1.1512678 2.5666667-2.5714286c-.0587496-4.3870416-.4880599-8.7612283-1.2833334-13.0757143 10.6645 4.41 17.9666667 12.1242857 17.9666667 20.9185714z" stroke="url(#b)"/><g stroke="url(#c)" stroke-linecap="round"><path d="m41 7c0 6.4936087-5 6.4936087-5 13s5 6.4936087 5 13"/><path d="m14 17c0 .6449631-5 5.5724816-5 10.5 0 5.2628993 5 5.25 5 10.5"/><path d="m64 16c0 .6324524-5 5.5759066-5 10.4935464 0 5.266134 5 5.2532268 5 10.5064536"/><path d="m22 20 1 1"/><path d="m27 21 1-1"/><path d="m23 25-1 1"/><path d="m27 25 1 1"/><path d="m53 0 1 1"/><path d="m58 1 1-1"/><path d="m54 5-1 1"/><path d="m58 5 1 1"/><path d="m71 26 1 1"/><path d="m76 27 1-1"/><path d="m72 32-1 1"/><path d="m76 32 1 1"/></g></g><g fill-rule="nonzero" transform="translate(214 110)"><g fill="url(#d)"><path d="m8.85940512 61c1.06180676 0 1.89608348-.8292683 1.89608348-1.8847007v-19.7139689l11.4523444-6.1064302v16.1707317c0 1.0554324.8342767 1.8847007 1.8960835 1.8847007s1.8960835-.8292683 1.8960835-1.8847007v-22.4656319l-18.99875672 10.1396896v21.9756097c-.03792167 1.0177384.79635507 1.8847007 1.85816184 1.8847007z"/><path d="m30.8924303 47.3148036c1.0597609 0 1.8924303-.8241692 1.8924303-1.8731118v-33.1166163l11.4302788-6.06888215v53.87069485c0 1.0489426.8326694 1.8731118 1.8924303 1.8731118 1.059761 0 1.8924303-.8241692 1.8924303-1.8731118v-60.1268882l-19 10.0773414v35.3643504c0 1.0114804.8326693 1.8731118 1.8924303 1.8731118z"/><path d="m53.8593589 60c1.0618096 0 1.8960886-.8093093 1.8960886-1.8393393v-35.0578078l11.4523753-5.9594595v31.746997c0 1.03003.8342789 1.8393393 1.8960886 1.8393393 1.0618096 0 1.8960886-.8093093 1.8960886-1.8393393v-37.8903904l-18.998808 9.8956456v37.2650151c-.0379218 1.03003.834279 1.8393393 1.8581669 1.8393393z"/></g><path d="m90.7447304 44.9345794c-.3339032-.5607476-.9275088-.9345794-1.5953151-.9345794h-12.799621c-.6678063 0-1.2614119.3738318-1.5953151.9345794-.3339031.5607477-.3339031 1.2710281 0 1.8691589l2.3002218 4-10.2025965 6.2429907c-1.5582147.9719626-3.0793291 1.906542-4.6375438 2.8785046-1.1130106.7102804-2.2260211 1.3831776-3.3019312 2.093458-2.8938274 1.8691589-5.4537516 3.5514019-7.8281741 5.1962617-1.2243115.8224299-2.4115227 1.682243-3.6358343 2.5046729l-16.6209571-16.3738318-29.97708343 19.2149533c-.85330807.5607476-1.11301053 1.7196261-.55650526 2.5794392.3710035.5607477.96460911.8598131 1.55821473.8598131.33390315 0 .66780631-.1121495 1.00170947-.2990654l27.45425949-17.6074767 16.7693586 16.4859814 2.2631214-1.6448599c1.2614119-.8971962 2.5228238-1.7943925 3.8213361-2.6542056 2.3373221-1.6074766 4.8601459-3.2523364 7.7539733-5.1214953 1.0759102-.7102804 2.1889207-1.3831776 3.2648309-2.0934579 1.5211143-.9719627 3.0793291-1.9065421 4.6004434-2.8785047l9.3863888-5.7943925.742007-.4485982 2.2631214 3.9626169c.3339031.5607476.9275088.9345794 1.5953151.9345794s1.2614119-.3738318 1.595315-.9345794l6.4183607-11.1775701c.2968028-.4859813.2968028-1.1962617-.0371003-1.7943926zm-8.0136758 8.3738318-3.1906301-5.5700934h6.3812603z" fill="url(#e)"/></g><g fill="url(#f)" fill-rule="nonzero" transform="translate(0 12)"><path d="m93.1280459 2.54528266c19.7511291 5.23902621 35.4682071 18.02225014 44.9508451 34.47279244 9.430247 16.3981521 12.678443 36.4112322 7.387027 56.1099708-5.291417 19.7511291-18.074641 35.4682071-34.472793 44.9508451-16.3981518 9.430247-36.4112319 12.678443-56.1623607 7.387027-19.6987386-5.291417-35.4682075-18.074641-44.89845468-34.472793-9.48263745-16.3981518-12.67844344-36.4112319-7.38702696-56.1623607 5.23902621-19.6987386 18.02225014-35.4682075 34.47279244-44.89845468 16.3981521-9.48263745 36.4112322-12.67844344 56.1099708-7.38702696zm41.8074291 36.25406144c-9.011125-15.5599079-23.94235-27.7144487-42.7504538-32.74391388-18.7557139-5.02946516-37.773379-1.99082996-53.3856771 7.02029518-15.5599079 8.9587348-27.7144487 23.9423497-32.74391388 42.6980636-5.02946516 18.7557138-1.99082996 37.8257693 7.02029518 53.385677 8.9587348 15.612298 23.9423497 27.766839 42.6980636 32.796304 18.7557138 5.029465 37.8257693 1.99083 53.385677-7.020295 15.612298-9.011125 27.766839-23.94235 32.796304-42.7504538 5.029465-18.7557139 1.99083-37.773379-7.020295-53.3856771z"/><path d="m.51075126 72.6969295c10.31979474-10.3197947 23.83505884-15.4534997 37.40270774-15.4534997 9.0625608 0 18.1775064 2.3049288 26.2971418 6.967171-4.6622422-8.1196354-6.967171-17.234581-6.967171-26.2971418 0-13.5676489 5.133705-27.082913 15.4534997-37.40270774.7333864-.68100168 1.8858508-.68100168 2.5668525 0 10.3197947 10.31979474 15.5058844 23.83505884 15.5058844 37.40270774 0 9.0625608-2.3573135 18.1775064-7.0195558 26.2971418 8.1196354-4.6622422 17.2345814-6.967171 26.3495264-6.967171 13.515264 0 27.030528 5.133705 37.350323 15.4534997.733387.7333864.733387 1.8858508 0 2.5668525-10.319795 10.3197947-23.835059 15.5058844-37.350323 15.5058844-9.114945 0-18.229891-2.3573135-26.3495264-7.0195558 4.6622423 8.1196354 7.0195558 17.2345814 7.0195558 26.3495264 0 13.515264-5.1860897 27.030528-15.5058844 37.350323-.6810017.733387-1.8334661.733387-2.5668525 0-10.3197947-10.319795-15.4534997-23.835059-15.4534997-37.350323 0-9.114945 2.3049288-18.229891 6.967171-26.3495264-8.1196354 4.6622423-17.234581 7.0195558-26.2971418 7.0195558-13.5676489 0-27.082913-5.1860897-37.40270774-15.5058844-.68100168-.6810017-.68100168-1.8334661 0-2.5668525zm37.40270774-11.8389523c-12.0484913 0-24.0445978 4.4003185-33.47385189 13.1485709 9.42925409 8.7482524 21.42536059 13.0961862 33.47385189 13.0961862 11.9961065 0 24.0445978-4.3479338 33.4738519-13.0961862-9.4292541-8.7482524-21.4777454-13.1485709-33.4738519-13.1485709zm49.1892753 49.2416598c0-12.0484911-4.3479338-24.0445976-13.0961862-33.4738517-8.7482524 9.4292541-13.1485709 21.4253606-13.1485709 33.4738517 0 11.996107 4.4003185 24.044598 13.1485709 33.473852 8.7482524-9.429254 13.0961862-21.477745 13.0961862-33.473852zm-10.476949-36.0930889c9.4292541 8.7482524 21.4253606 13.0961862 33.4738517 13.0961862 11.996107 0 24.044598-4.3479338 33.473852-13.0961862-9.429254-8.7482524-21.477745-13.1485709-33.473852-13.1485709-12.0484911 0-24.0445976 4.4003185-33.4738517 13.1485709zm-2.6192372-69.56694099c-8.7482524 9.42925409-13.1485709 21.42536059-13.1485709 33.47385189 0 11.9961065 4.4003185 24.0445978 13.1485709 33.4738519 8.7482524-9.4292541 13.0961862-21.4777454 13.0961862-33.4738519 0-12.0484913-4.3479338-24.0445978-13.0961862-33.47385189z"/><path d="m22.7690783 23c14.5168484 0 27.6288404 5.8795837 37.1506442 15.3493558 6.3999009 6.3999009 11.1347869 14.4127849 13.5802775 23.4142716 2.3934589-8.949455 7.1803766-17.0143707 13.5802775-23.4142716 9.4697721-9.4697721 22.5817645-15.3493558 37.0986125-15.3493558.988603 0 1.82111.7804757 1.82111 1.7690783 0 14.5168484-5.879584 27.6288404-15.401388 37.1506442-6.3999 6.3999009-14.4127844 11.1347869-23.4142711 13.5802775 9.0014867 2.3934589 17.0143711 7.1803766 23.4142711 13.5802775 9.521804 9.4697721 15.401388 22.5817645 15.401388 37.0986125 0 .988603-.832507 1.82111-1.82111 1.82111-14.516848 0-27.6288404-5.879584-37.0986125-15.401388-6.3999009-6.3999-11.1868186-14.4127844-13.5802775-23.4142711-2.4454906 9.0014867-7.1803766 17.0143711-13.5802775 23.4142711-9.5218038 9.521804-22.6337958 15.401388-37.1506442 15.401388-.9886026 0-1.7690783-.832507-1.7690783-1.82111 0-14.516848 5.8795837-27.6288404 15.3493558-37.0986125 6.3999009-6.3999009 14.4127849-11.1868186 23.4142716-13.5802775-9.0014867-2.4454906-17.0143707-7.1803766-23.4142716-13.5802775-9.4697721-9.5218038-15.3493558-22.6337958-15.3493558-37.1506442 0-.9886026.7804757-1.7690783 1.7690783-1.7690783zm34.6010902 17.8989098c-8.4811695-8.4291377-19.9801784-13.7884043-32.7279485-14.2566898.4682855 12.7477701 5.8275521 24.246779 14.2566898 32.7279485 8.4811695 8.4291377 19.9801784 13.7884043 32.7279485 14.2566898-.4682855-12.7477701-5.8275521-24.246779-14.2566898-32.7279485zm0 69.1501482c8.4291377-8.429137 13.7884043-19.9801779 14.2566898-32.727948-12.7477701.4682854-24.246779 5.827552-32.7279485 14.3087215-8.4291377 8.4291375-13.7884043 19.9281465-14.2566898 32.7279485 12.7477701-.468285 24.246779-5.879584 32.7279485-14.308722zm17.9509415-32.727948c.4682854 12.7477701 5.827552 24.298811 14.3087215 32.727948 8.4291378 8.429138 19.9281465 13.840437 32.7279485 14.308722-.468285-12.799802-5.879584-24.298811-14.308722-32.7279485-8.4291373-8.4811695-19.9801779-13.8404361-32.727948-14.3087215zm47.03667-50.67889c-12.799802.4682855-24.2988107 5.8275521-32.7279485 14.2566898-8.4811695 8.4811695-13.8404361 19.9801784-14.3087215 32.7279485 12.7477701-.4682855 24.2988107-5.8275521 32.727948-14.2566898 8.429138-8.4811695 13.840437-19.9801784 14.308722-32.7279485z"/></g><g stroke="#979797" stroke-linecap="square"><path d="m136.5 49.5 105 1"/><path d="m148.5 85.5h214"/><path d="m131.5 130.5h113"/></g></g></svg>