<?xml version="1.0" encoding="UTF-8"?>
<svg width="440px" height="186px" viewBox="0 0 440 186" version="1.1" xmlns="http://www.w3.org/2000/svg" xmlns:xlink="http://www.w3.org/1999/xlink">
    <title>Group 2</title>
    <defs>
        <linearGradient x1="50%" y1="0%" x2="50%" y2="157.711142%" id="linearGradient-1">
            <stop stop-color="#EEEAF2" offset="0%"></stop>
            <stop stop-color="#000000" offset="100%"></stop>
        </linearGradient>
        <linearGradient x1="50%" y1="0%" x2="50%" y2="149.689109%" id="linearGradient-2">
            <stop stop-color="#F0EEF2" offset="0.0409746503%"></stop>
            <stop stop-color="#000000" offset="100%"></stop>
        </linearGradient>
        <linearGradient x1="50%" y1="0%" x2="50%" y2="100%" id="linearGradient-3">
            <stop stop-color="#DFD9E6" offset="0%"></stop>
            <stop stop-color="#000000" offset="100%"></stop>
        </linearGradient>
        <linearGradient x1="50%" y1="0%" x2="50%" y2="100%" id="linearGradient-4">
            <stop stop-color="#DFD9E6" offset="0%"></stop>
            <stop stop-color="#000000" offset="100%"></stop>
        </linearGradient>
        <linearGradient x1="50%" y1="0%" x2="50%" y2="100%" id="linearGradient-5">
            <stop stop-color="#DFD9E6" offset="0%"></stop>
            <stop stop-color="#000000" offset="100%"></stop>
        </linearGradient>
        <linearGradient x1="50%" y1="0%" x2="50%" y2="100%" id="linearGradient-6">
            <stop stop-color="#E2DEE8" offset="0%"></stop>
            <stop stop-color="#000000" offset="100%"></stop>
        </linearGradient>
        <linearGradient x1="50%" y1="0%" x2="50%" y2="100%" id="linearGradient-7">
            <stop stop-color="#E2DEE8" offset="0%"></stop>
            <stop stop-color="#000000" offset="100%"></stop>
        </linearGradient>
        <linearGradient x1="50%" y1="0%" x2="50%" y2="100%" id="linearGradient-8">
            <stop stop-color="#E2DEE8" offset="0%"></stop>
            <stop stop-color="#000000" offset="100%"></stop>
        </linearGradient>
        <linearGradient x1="50%" y1="0%" x2="50%" y2="204.670981%" id="linearGradient-9">
            <stop stop-color="#EAE8EF" offset="0%"></stop>
            <stop stop-color="#000000" offset="100%"></stop>
        </linearGradient>
        <linearGradient x1="50%" y1="0%" x2="50%" y2="132.866689%" id="linearGradient-10">
            <stop stop-color="#CEC7D9" offset="0%"></stop>
            <stop stop-color="#000000" offset="99.9344406%"></stop>
        </linearGradient>
    </defs>
    <g id="Page-1" stroke="none" stroke-width="1" fill="none" fill-rule="evenodd">
        <g id="Post" transform="translate(-129.000000, -184.000000)">
            <g id="Group-2" transform="translate(129.000000, 184.000000)">
                <g id="Group" transform="translate(237.000000, 0.000000)" fill-rule="nonzero">
                    <path d="M8.91511036,64.5696 C9.04390007,67.2624 12.2207131,69.2352 16.7283531,70.4736 C16.771283,70.488 16.814213,70.5024 16.8571429,70.5168 C18.7031288,71.0208 20.7637642,71.3808 22.9388795,71.6256 C22.9674994,71.6256 22.9818094,71.64 23.0104293,71.64 C23.0247393,71.64 23.0390492,71.64 23.0390492,71.64 C25.1283046,71.8704 27.3034198,72 29.478535,72 C29.492845,72 29.492845,72 29.507155,72 C29.521465,72 29.521465,72 29.5357749,72 C31.7108901,72 33.8860053,71.8704 35.9752607,71.64 C35.9895707,71.64 35.9895707,71.64 36.0038807,71.64 C36.0181906,71.64 36.0468106,71.6256 36.0611205,71.6256 C38.2362358,71.3808 40.3111812,71.0064 42.1571671,70.5024 C42.185787,70.488 42.228717,70.488 42.2573369,70.4736 C46.7792869,69.2352 49.9560999,67.2624 50.0848896,64.5696 L54.1918506,44.784 C54.3492602,44.0064 53.8627213,43.2432 53.089983,43.0848 C52.3029348,42.9264 51.5588164,43.416 51.4014067,44.1936 L47.2658259,64.0944 C47.2515159,64.1952 47.2372059,64.296 47.2372059,64.3824 C47.2372059,65.1024 45.9493088,66.1392 43.5023041,67.0464 L49.1976716,29.4624 C51.4300267,28.7856 53.4048023,27.9648 54.9788989,27.0288 L52.4317245,39.2544 C52.2743148,40.032 52.7608537,40.7952 53.533592,40.9536 C53.6337618,40.968 53.7339316,40.9824 53.8341014,40.9824 C54.4923599,40.9824 55.0933786,40.5216 55.2364783,39.8448 L58.7138006,23.0976 C58.8998302,22.5936 59,22.0752 59,21.528 C59,18.9792 57.3686636,16.776 55.0647587,15.9696 C55.0647587,15.9408 55.0647587,15.912 55.0647587,15.8832 C55.0647587,12.6144 52.3744846,9.9936 49.1547417,10.008 C48.5107931,7.4592 46.2211982,5.5728 43.4879942,5.5728 C43.2447247,5.5728 43.0157652,5.5872 42.7868057,5.616 C41.9282076,3.4128 39.8246423,1.9008 37.3776376,1.9008 C36.3187,1.9008 35.3026922,2.1888 34.4297841,2.7072 C33.3708465,1.0656 31.5534805,0 29.492845,0 C27.4322096,0 25.6148436,1.0656 24.5702159,2.7216 C23.6829978,2.1888 22.6813,1.9152 21.6223624,1.9152 C19.1610478,1.9152 17.0574824,3.4272 16.2131943,5.6304 C15.9842348,5.6016 15.7409653,5.5872 15.5120058,5.5872 C12.7788018,5.5872 10.4892069,7.4736 9.84525831,10.0224 C9.81663837,10.0224 9.8023284,10.0224 9.77370846,10.0224 C6.55396556,10.0224 3.93524133,12.6576 3.93524133,15.8976 C3.93524133,15.9264 3.93524133,15.9552 3.93524133,15.984 C1.64564637,16.7904 0,18.9936 0,21.5424 C0,22.0752 0.100169779,22.5936 0.286199369,23.0976 L8.91511036,64.5696 Z M11.5160747,64.5515653 C11.5160747,64.4508096 11.5021568,64.350054 11.4882389,64.2492983 L3.98648649,27.2 C5.51745636,28.1355883 7.43812765,28.9560273 9.60932129,29.6325297 L15.1486486,67.2 C12.7686864,66.3075927 11.5160747,65.2712487 11.5160747,64.5515653 Z M37.472973,31.2 L34.6593842,68.5831603 C33.539412,68.6843522 32.364807,68.7566321 31.0945946,68.8 L31.0945946,31.5903114 C33.2389317,31.5469435 35.3832687,31.4168397 37.472973,31.2 Z M27.9054054,68.8 C26.6488512,68.771088 25.460588,68.6988082 24.3406158,68.5831603 L21.527027,31.2 C23.6167313,31.4168397 25.7610683,31.5469435 27.9054054,31.5758554 L27.9054054,68.8 Z M18.5259046,31.426506 L21.527027,68.8 C20.4635225,68.6409639 19.4728607,68.453012 18.5696103,68.2361446 L12.7567568,30.4 C14.5778262,30.8048193 16.515444,31.1518072 18.5259046,31.426506 Z M40.4303897,68.2361446 C39.5271393,68.453012 38.5510461,68.6409639 37.472973,68.8 L40.4740954,31.426506 C42.484556,31.1518072 44.4221738,30.8192771 46.2432432,30.4 L40.4303897,68.2361446 Z M6.002222,18.9387397 C6.43278824,18.9098082 6.83465007,18.6783562 7.07863761,18.3311781 C7.32262515,17.984 7.4087384,17.5210959 7.27956853,17.101589 C7.19345528,16.7833425 7.15039865,16.5084932 7.15039865,16.2770411 C7.15039865,14.6134795 8.48515401,13.2681644 10.135658,13.2681644 C10.4083499,13.2681644 10.6953941,13.3260274 11.0398471,13.4272877 C11.4847655,13.5719452 11.9870928,13.4851507 12.3602502,13.1958356 C12.7334076,12.9065205 12.9486908,12.4436164 12.9199863,11.9662466 C12.9199863,11.8939178 12.9056341,11.8071233 12.8912819,11.8071233 C12.8912819,10.1435616 14.2260373,8.79824658 15.8765412,8.79824658 C16.2784031,8.79824658 16.6802649,8.8850411 17.0534223,9.04416438 C17.4696363,9.23221918 17.9576114,9.20328767 18.3594733,8.95736986 C18.7613351,8.71145205 19.0196748,8.30641096 19.0627315,7.84350685 C19.2062535,6.28120548 20.4692479,5.10947945 22.0192863,5.10947945 C22.9665321,5.10947945 23.8420168,5.55791781 24.4161051,6.33906849 C24.7605581,6.8019726 25.3489986,7.0189589 25.9087348,6.88876712 C26.4684709,6.75857534 26.8990371,6.29567123 26.9851504,5.7170411 C27.2147857,4.256 28.4490756,3.2 29.9130009,3.2 C31.3769261,3.2 32.611216,4.256 32.8408513,5.73150685 C32.9413168,6.31013699 33.3575308,6.7730411 33.9172669,6.90323288 C34.4770031,7.03342466 35.0654436,6.83090411 35.4098966,6.35353425 C35.9839849,5.57238356 36.8594696,5.12394521 37.8067154,5.12394521 C39.3424016,5.12394521 40.6197482,6.29567123 40.7632703,7.8579726 C40.8063269,8.32087671 41.0646666,8.74038356 41.4665285,8.97183562 C41.8683903,9.20328767 42.3420132,9.23221918 42.7725794,9.05863014 C43.1457368,8.89950685 43.5475986,8.81271233 43.9494605,8.81271233 C45.5999644,8.81271233 46.9347198,10.1580274 46.9347198,11.7492603 C46.9347198,11.7926575 46.9060154,11.9373151 46.9060154,11.9807123 C46.8773109,12.4580822 47.0925941,12.9209863 47.4657515,13.2103014 C47.8389089,13.4996164 48.326884,13.586411 48.7861546,13.4417534 C49.1306076,13.3260274 49.4176518,13.2826301 49.6903438,13.2826301 C51.3408477,13.2826301 52.6756031,14.6279452 52.6756031,16.2915068 C52.6756031,16.5374247 52.6325464,16.7978082 52.5464332,17.1160548 C52.4316155,17.5355616 52.5033766,17.984 52.7473641,18.3456438 C52.9913516,18.7072877 53.3932135,18.924274 53.8237797,18.9532055 C55.3881704,19.0544658 56.6081081,20.3853151 56.6081081,21.9620822 C56.6081081,25.1590137 46.4467447,29.6 29.8986486,29.6 C13.3505526,29.6 3.18918919,25.1445479 3.18918919,21.9620822 C3.2035414,20.3708493 4.42347909,19.04 6.002222,18.9387397 Z" id="Shape" fill="url(#linearGradient-1)"></path>
                    <path d="M6.48775306,11.9562502 C6.57832389,11.9854167 6.66134715,12 6.75191797,12 C7.05382073,12 7.34062835,11.8177093 7.46138945,11.5333358 C7.51422243,11.4093781 7.99726684,10.3010507 9.12185461,10.4833414 C9.52942333,10.548966 9.92189692,10.2791758 9.98982504,9.87813624 C10.0577532,9.4770967 9.77849311,9.10522367 9.36337682,9.03959902 C7.45384188,8.74064227 6.35944439,10.2062595 6.04999406,11.0229218 C5.89904268,11.4020865 6.10282705,11.8177093 6.48775306,11.9562502 Z" id="Path" fill="#000000"></path>
                    <path d="M14.1455408,13.5165403 C14.4085172,13.8435866 14.93447,13.928903 15.3162099,13.715612 C15.4519396,13.6445149 16.6310918,13.0330806 17.5472676,13.7938187 C17.7084466,13.928903 17.9290075,14 18.1495683,14 C18.3701292,14 18.5822069,13.928903 18.7518691,13.7938187 C19.0827103,13.5165403 19.0827103,13.0686291 18.7518691,12.7913508 C17.2164263,11.5044949 15.2228957,12.0661613 14.3830679,12.5354016 C13.9843618,12.7486926 13.8825644,13.1894941 14.1455408,13.5165403 Z" id="Path" fill="#000000"></path>
                    <path d="M11.4912534,8.95635631 C11.5741939,8.9854521 11.6646745,9 11.7551551,9 C12.064297,9 12.3508188,8.81815129 12.4639195,8.52719335 C12.4789996,8.47627572 12.9464825,7.29789607 14.1227298,7.47974478 C14.5374324,7.54521032 14.9219748,7.27607423 14.9898352,6.87600707 C15.0576956,6.47593991 14.7787139,6.10496854 14.3640113,6.039503 C12.4563794,5.74127112 11.3630726,7.20333475 11.0539307,8.01801697 C10.8955897,8.40353623 11.099171,8.81815129 11.4912534,8.95635631 Z" id="Path" fill="#000000"></path>
                    <path d="M23.8711212,10.4760497 C25.011756,10.3010507 25.4800961,11.3947949 25.5329732,11.5260442 C25.6462813,11.8177093 25.9333284,12 26.2430372,12 C26.3336837,12 26.4167763,11.9854167 26.5074227,11.9562502 C26.9002241,11.8177093 27.0966248,11.3947949 26.9531012,11.0229218 C26.6433924,10.2062595 25.5480809,8.74064227 23.6369511,9.03959902 C23.229042,9.10522367 22.9419949,9.4770967 23.0099797,9.87813624 C23.0704107,10.2718842 23.4632121,10.5416744 23.8711212,10.4760497 Z" id="Path" fill="#000000"></path>
                    <path d="M18.8711212,8.47604974 C20.0042021,8.29375904 20.4800961,9.39479487 20.5329732,9.52604418 C20.6462813,9.8177093 20.9333284,10 21.2430372,10 C21.3336837,10 21.4167763,9.98541674 21.5074227,9.95625023 C21.9002241,9.8177093 22.0966248,9.39479487 21.9531012,9.02292184 C21.6433924,8.2062595 20.5480809,6.74064227 18.6369511,7.03959902 C18.229042,7.10522367 17.9419949,7.4770967 18.0099797,7.87813624 C18.0704107,8.27188415 18.4632121,8.54167439 18.8711212,8.47604974 Z" id="Path" fill="#000000"></path>
                </g>
                <g id="Group" transform="translate(362.000000, 27.000000)" stroke-linejoin="round" stroke-width="2">
                    <path d="M77,64.2228571 L77,68.08 C77,71.0371429 59.7648333,76 38.5,76 C17.2351667,76 0,71.0371429 0,68.1442857 L0,64.2871429 C0,55.7371429 6.49366667,47.8428571 16.6833333,43.3685714 C17.4896411,47.6814889 17.9190451,52.0566295 17.9666667,56.4442857 C17.9666667,57.8644465 19.1158025,59.0157143 20.5333333,59.0157143 C21.9508642,59.0157143 23.1,57.8644465 23.1,56.4442857 C23.114074,51.6192665 22.6844813,46.8032055 21.8166667,42.0571429 C25.996239,40.8565827 30.3051842,40.1658723 34.65,40 C36.4183813,46.1721955 37.2829541,52.5689118 37.2166667,58.99 C37.2166667,60.4101608 38.3658025,61.5614286 39.7833333,61.5614286 C41.2008642,61.5614286 42.35,60.4101608 42.35,58.99 C42.3686424,52.57197 41.5049735,46.1819418 39.7833333,40 C44.66,40.1157143 49.4211667,40.1928571 53.669,41.3757143 C54.6931117,46.3107912 55.2006354,51.3394263 55.1833333,56.38 C55.1833333,57.8001608 56.3324691,58.9514286 57.75,58.9514286 C59.1675309,58.9514286 60.3166667,57.8001608 60.3166667,56.38 C60.2579171,51.9929584 59.8286068,47.6187717 59.0333333,43.3042857 C69.6978333,47.7142857 77,55.4285714 77,64.2228571 Z" id="Path" stroke="url(#linearGradient-2)"></path>
                    <path d="M41,7 C41,13.4936087 36,13.4936087 36,20 C36,26.5063913 41,26.4936087 41,33" id="Path" stroke="url(#linearGradient-3)" stroke-linecap="round"></path>
                    <path d="M14,17 C14,17.6449631 9,22.5724816 9,27.5 C9,32.7628993 14,32.75 14,38" id="Path" stroke="url(#linearGradient-4)" stroke-linecap="round"></path>
                    <path d="M64,16 C64,16.6324524 59,21.5759066 59,26.4935464 C59,31.7596804 64,31.7467732 64,37" id="Path" stroke="url(#linearGradient-4)" stroke-linecap="round"></path>
                    <line x1="22" y1="20" x2="23" y2="21" id="Path" stroke="url(#linearGradient-5)" stroke-linecap="round"></line>
                    <line x1="27" y1="21" x2="28" y2="20" id="Path" stroke="url(#linearGradient-5)" stroke-linecap="round"></line>
                    <line x1="23" y1="25" x2="22" y2="26" id="Path" stroke="url(#linearGradient-5)" stroke-linecap="round"></line>
                    <line x1="27" y1="25" x2="28" y2="26" id="Path" stroke="url(#linearGradient-5)" stroke-linecap="round"></line>
                    <line x1="53" y1="0" x2="54" y2="1" id="Path" stroke="url(#linearGradient-5)" stroke-linecap="round"></line>
                    <line x1="58" y1="1" x2="59" y2="0" id="Path" stroke="url(#linearGradient-5)" stroke-linecap="round"></line>
                    <line x1="54" y1="5" x2="53" y2="6" id="Path" stroke="url(#linearGradient-5)" stroke-linecap="round"></line>
                    <line x1="58" y1="5" x2="59" y2="6" id="Path" stroke="url(#linearGradient-5)" stroke-linecap="round"></line>
                    <line x1="71" y1="26" x2="72" y2="27" id="Path" stroke="url(#linearGradient-5)" stroke-linecap="round"></line>
                    <line x1="76" y1="27" x2="77" y2="26" id="Path" stroke="url(#linearGradient-5)" stroke-linecap="round"></line>
                    <line x1="72" y1="32" x2="71" y2="33" id="Path" stroke="url(#linearGradient-5)" stroke-linecap="round"></line>
                    <line x1="76" y1="32" x2="77" y2="33" id="Path" stroke="url(#linearGradient-5)" stroke-linecap="round"></line>
                </g>
                <g id="Group" transform="translate(214.000000, 110.000000)" fill-rule="nonzero">
                    <path d="M8.85940512,61 C9.92121188,61 10.7554886,60.1707317 10.7554886,59.1152993 L10.7554886,39.4013304 L22.207833,33.2949002 L22.207833,49.4656319 C22.207833,50.5210643 23.0421097,51.3503326 24.1039165,51.3503326 C25.1657233,51.3503326 26,50.5210643 26,49.4656319 L26,27 L7.00124328,37.1396896 L7.00124328,59.1152993 C6.96332161,60.1330377 7.79759835,61 8.85940512,61 Z" id="Path" fill="url(#linearGradient-6)"></path>
                    <path d="M30.8924303,47.3148036 C31.9521912,47.3148036 32.7848606,46.4906344 32.7848606,45.4416918 L32.7848606,12.3250755 L44.2151394,6.25619335 L44.2151394,60.1268882 C44.2151394,61.1758308 45.0478088,62 46.1075697,62 C47.1673307,62 48,61.1758308 48,60.1268882 L48,0 L29,10.0773414 L29,45.4416918 C29,46.4531722 29.8326693,47.3148036 30.8924303,47.3148036 Z" id="Path" fill="url(#linearGradient-7)"></path>
                    <path d="M53.8593589,60 C54.9211685,60 55.7554475,59.1906907 55.7554475,58.1606607 L55.7554475,23.1028529 L67.2078228,17.1433934 L67.2078228,48.8903904 C67.2078228,49.9204204 68.0421017,50.7297297 69.1039114,50.7297297 C70.165721,50.7297297 71,49.9204204 71,48.8903904 L71,11 L52.001192,20.8956456 L52.001192,58.1606607 C51.9632702,59.1906907 52.835471,60 53.8593589,60 Z" id="Path" fill="url(#linearGradient-8)"></path>
                    <path d="M90.7447304,44.9345794 C90.4108272,44.3738318 89.8172216,44 89.1494153,44 L76.3497943,44 C75.681988,44 75.0883824,44.3738318 74.7544792,44.9345794 C74.4205761,45.4953271 74.4205761,46.2056075 74.7544792,46.8037383 L77.054701,50.8037383 L66.8521045,57.046729 C65.2938898,58.0186916 63.7727754,58.953271 62.2145607,59.9252336 C61.1015501,60.635514 59.9885396,61.3084112 58.9126295,62.0186916 C56.0188021,63.8878505 53.4588779,65.5700935 51.0844554,67.2149533 C49.8601439,68.0373832 48.6729327,68.8971963 47.4486211,69.7196262 L30.827664,53.3457944 L0.850580567,72.5607477 C-0.00272750017,73.1214953 -0.262429955,74.2803738 0.294075306,75.1401869 C0.665078813,75.7009346 1.25868442,76 1.85229004,76 C2.18619319,76 2.52009635,75.8878505 2.85399951,75.7009346 L30.308259,58.0934579 L47.0776176,74.5794393 L49.340739,72.9345794 C50.6021509,72.0373832 51.8635628,71.1401869 53.1620751,70.2803738 C55.4993972,68.6728972 58.022221,67.0280374 60.9160484,65.1588785 C61.9919586,64.4485981 63.1049691,63.7757009 64.1808793,63.0654206 C65.7019936,62.0934579 67.2602084,61.1588785 68.7813227,60.1869159 L78.1677115,54.3925234 L78.9097185,53.9439252 L81.1728399,57.9065421 C81.506743,58.4672897 82.1003487,58.8411215 82.768155,58.8411215 C83.4359613,58.8411215 84.0295669,58.4672897 84.36347,57.9065421 L90.7818307,46.728972 C91.0786335,46.2429907 91.0786335,45.5327103 90.7447304,44.9345794 Z M82.7310546,53.3084112 L79.5404245,47.7383178 L85.9216848,47.7383178 L82.7310546,53.3084112 Z" id="Shape" fill="url(#linearGradient-9)"></path>
                </g>
                <g id="Group" transform="translate(0.000000, 12.000000)" fill="url(#linearGradient-10)" fill-rule="nonzero">
                    <path d="M93.1280459,2.54528266 C112.879175,7.78430887 128.596253,20.5675328 138.078891,37.0180751 L138.078891,37.0180751 C147.509138,53.4162272 150.757334,73.4293073 145.465918,93.1280459 C140.174501,112.879175 127.391277,128.596253 110.993125,138.078891 L110.993125,138.078891 C94.5949732,147.509138 74.5818931,150.757334 54.8307643,145.465918 C35.1320257,140.174501 19.3625568,127.391277 9.93230962,110.993125 L9.93230962,110.993125 C0.449672174,94.5949732 -2.74613382,74.5818931 2.54528266,54.8307643 C7.78430887,35.1320257 20.5675328,19.3625568 37.0180751,9.93230962 L37.0180751,9.93230962 C53.4162272,0.449672174 73.4293073,-2.74613382 93.1280459,2.54528266 Z M134.935475,38.7993441 C125.92435,23.2394362 110.993125,11.0848954 92.1850212,6.05543022 C73.4293073,1.02596506 54.4116422,4.06460026 38.7993441,13.0757254 L38.7993441,13.0757254 L38.7993441,13.0757254 C23.2394362,22.0344602 11.0848954,37.0180751 6.05543022,55.773789 C1.02596506,74.5295028 4.06460026,93.5995583 13.0757254,109.159466 L13.0757254,109.159466 L13.0757254,109.159466 C22.0344602,124.771764 37.0180751,136.926305 55.773789,141.95577 C74.5295028,146.985235 93.5995583,143.9466 109.159466,134.935475 L109.159466,134.935475 L109.159466,134.935475 C124.771764,125.92435 136.926305,110.993125 141.95577,92.1850212 C146.985235,73.4293073 143.9466,54.4116422 134.935475,38.7993441 L134.935475,38.7993441 L134.935475,38.7993441 Z" id="Shape"></path>
                    <path d="M0.510751261,72.6969295 C10.830546,62.3771348 24.3458101,57.2434298 37.913459,57.2434298 C46.9760198,57.2434298 56.0909654,59.5483586 64.2106008,64.2106008 C59.5483586,56.0909654 57.2434298,46.9760198 57.2434298,37.913459 C57.2434298,24.3458101 62.3771348,10.830546 72.6969295,0.510751261 C73.4303159,-0.17025042 74.5827803,-0.17025042 75.263782,0.510751261 C85.5835767,10.830546 90.7696664,24.3458101 90.7696664,37.913459 C90.7696664,46.9760198 88.4123529,56.0909654 83.7501106,64.2106008 C91.869746,59.5483586 100.984692,57.2434298 110.099637,57.2434298 C123.614901,57.2434298 137.130165,62.3771348 147.44996,72.6969295 C148.183347,73.4303159 148.183347,74.5827803 147.44996,75.263782 C137.130165,85.5835767 123.614901,90.7696664 110.099637,90.7696664 C100.984692,90.7696664 91.869746,88.4123529 83.7501106,83.7501106 C88.4123529,91.869746 90.7696664,100.984692 90.7696664,110.099637 C90.7696664,123.614901 85.5835767,137.130165 75.263782,147.44996 C74.5827803,148.183347 73.4303159,148.183347 72.6969295,147.44996 C62.3771348,137.130165 57.2434298,123.614901 57.2434298,110.099637 C57.2434298,100.984692 59.5483586,91.869746 64.2106008,83.7501106 C56.0909654,88.4123529 46.9760198,90.7696664 37.913459,90.7696664 C24.3458101,90.7696664 10.830546,85.5835767 0.510751261,75.263782 C-0.17025042,74.5827803 -0.17025042,73.4303159 0.510751261,72.6969295 Z M37.913459,60.8579772 C25.8649677,60.8579772 13.8688612,65.2582957 4.43960711,74.0065481 C13.8688612,82.7548005 25.8649677,87.1027343 37.913459,87.1027343 C49.9095655,87.1027343 61.9580568,82.7548005 71.3873109,74.0065481 C61.9580568,65.2582957 49.9095655,60.8579772 37.913459,60.8579772 Z M87.1027343,110.099637 C87.1027343,98.0511459 82.7548005,86.0550394 74.0065481,76.6257853 C65.2582957,86.0550394 60.8579772,98.0511459 60.8579772,110.099637 C60.8579772,122.095744 65.2582957,134.144235 74.0065481,143.573489 C82.7548005,134.144235 87.1027343,122.095744 87.1027343,110.099637 Z M76.6257853,74.0065481 C86.0550394,82.7548005 98.0511459,87.1027343 110.099637,87.1027343 C122.095744,87.1027343 134.144235,82.7548005 143.573489,74.0065481 C134.144235,65.2582957 122.095744,60.8579772 110.099637,60.8579772 C98.0511459,60.8579772 86.0550394,65.2582957 76.6257853,74.0065481 Z M74.0065481,4.43960711 C65.2582957,13.8688612 60.8579772,25.8649677 60.8579772,37.913459 C60.8579772,49.9095655 65.2582957,61.9580568 74.0065481,71.3873109 C82.7548005,61.9580568 87.1027343,49.9095655 87.1027343,37.913459 C87.1027343,25.8649677 82.7548005,13.8688612 74.0065481,4.43960711 Z" id="Shape"></path>
                    <path d="M22.7690783,23 C37.2859267,23 50.3979187,28.8795837 59.9197225,38.3493558 C66.3196234,44.7492567 71.0545094,52.7621407 73.5,61.7636274 C75.8934589,52.8141724 80.6803766,44.7492567 87.0802775,38.3493558 C96.5500496,28.8795837 109.662042,23 124.17889,23 C125.167493,23 126,23.7804757 126,24.7690783 C126,39.2859267 120.120416,52.3979187 110.598612,61.9197225 C104.198712,68.3196234 96.1858276,73.0545094 87.1843409,75.5 C96.1858276,77.8934589 104.198712,82.6803766 110.598612,89.0802775 C120.120416,98.5500496 126,111.662042 126,126.17889 C126,127.167493 125.167493,128 124.17889,128 C109.662042,128 96.5500496,122.120416 87.0802775,112.598612 C80.6803766,106.198712 75.8934589,98.1858276 73.5,89.1843409 C71.0545094,98.1858276 66.3196234,106.198712 59.9197225,112.598612 C50.3979187,122.120416 37.2859267,128 22.7690783,128 C21.7804757,128 21,127.167493 21,126.17889 C21,111.662042 26.8795837,98.5500496 36.3493558,89.0802775 C42.7492567,82.6803766 50.7621407,77.8934589 59.7636274,75.5 C50.7621407,73.0545094 42.7492567,68.3196234 36.3493558,61.9197225 C26.8795837,52.3979187 21,39.2859267 21,24.7690783 C21,23.7804757 21.7804757,23 22.7690783,23 Z M57.3701685,40.8989098 C48.888999,32.4697721 37.3899901,27.1105055 24.64222,26.64222 C25.1105055,39.3899901 30.4697721,50.888999 38.8989098,59.3701685 C47.3800793,67.7993062 58.8790882,73.1585728 71.6268583,73.6268583 C71.1585728,60.8790882 65.7993062,49.3800793 57.3701685,40.8989098 Z M57.3701685,110.049058 C65.7993062,101.619921 71.1585728,90.0688801 71.6268583,77.32111 C58.8790882,77.7893954 47.3800793,83.148662 38.8989098,91.6298315 C30.4697721,100.058969 25.1105055,111.557978 24.64222,124.35778 C37.3899901,123.889495 48.888999,118.478196 57.3701685,110.049058 Z M75.32111,77.32111 C75.7893954,90.0688801 81.148662,101.619921 89.6298315,110.049058 C98.0589693,118.478196 109.557978,123.889495 122.35778,124.35778 C121.889495,111.557978 116.478196,100.058969 108.049058,91.6298315 C99.6199207,83.148662 88.0688801,77.7893954 75.32111,77.32111 Z M122.35778,26.64222 C109.557978,27.1105055 98.0589693,32.4697721 89.6298315,40.8989098 C81.148662,49.3800793 75.7893954,60.8790882 75.32111,73.6268583 C88.0688801,73.1585728 99.6199207,67.7993062 108.049058,59.3701685 C116.478196,50.888999 121.889495,39.3899901 122.35778,26.64222 Z" id="Shape"></path>
                </g>
                <line x1="136.5" y1="49.5" x2="241.5" y2="50.5" id="Line" stroke="#979797" stroke-linecap="square"></line>
                <line x1="148.5" y1="85.5" x2="362.5" y2="85.5" id="Line" stroke="#979797" stroke-linecap="square"></line>
                <line x1="131.5" y1="130.5" x2="244.5" y2="130.5" id="Line" stroke="#979797" stroke-linecap="square"></line>
            </g>
        </g>
    </g>
</svg>